<?xml version="1.0" encoding="UTF-8" standalone="no"?>
<svg
   xmlns:i="http://ns.adobe.com/AdobeIllustrator/10.0/"
   xmlns:dc="http://purl.org/dc/elements/1.1/"
   xmlns:cc="http://creativecommons.org/ns#"
   xmlns:rdf="http://www.w3.org/1999/02/22-rdf-syntax-ns#"
   xmlns:svg="http://www.w3.org/2000/svg"
   xmlns="http://www.w3.org/2000/svg"
   xmlns:xlink="http://www.w3.org/1999/xlink"
   xmlns:sodipodi="http://sodipodi.sourceforge.net/DTD/sodipodi-0.dtd"
   xmlns:inkscape="http://www.inkscape.org/namespaces/inkscape"
   version="1.1"
   x="0px"
   y="0px"
   viewBox="0 0 100 125"
   enable-background="new 0 0 100 100"
   xml:space="preserve"
   id="svg4582"
   sodipodi:docname="molotov.svg"
   inkscape:version="0.92.2 5c3e80d, 2017-08-06"
   inkscape:export-filename="/Users/tarek/Desktop/molotov.png"
   inkscape:export-xdpi="12000.441"
   inkscape:export-ydpi="12000.441"><metadata
     id="metadata4588"><rdf:RDF><cc:Work
         rdf:about=""><dc:format>image/svg+xml</dc:format><dc:type
           rdf:resource="http://purl.org/dc/dcmitype/StillImage" /><dc:title /></cc:Work></rdf:RDF></metadata><defs
     id="defs4586" /><sodipodi:namedview
     pagecolor="#ffffff"
     bordercolor="#666666"
     borderopacity="1"
     objecttolerance="10"
     gridtolerance="10"
     guidetolerance="10"
     inkscape:pageopacity="0"
     inkscape:pageshadow="2"
     inkscape:window-width="1440"
     inkscape:window-height="855"
     id="namedview4584"
     showgrid="false"
     inkscape:zoom="5.424"
     inkscape:cx="50.159807"
     inkscape:cy="62.521547"
     inkscape:window-x="7"
     inkscape:window-y="0"
     inkscape:window-maximized="0"
     inkscape:current-layer="svg4582" /><g
     id="g850"
     inkscape:export-xdpi="3401.4399"
     inkscape:export-ydpi="3401.4399"><text
       transform="matrix(0.80410573,0.20098335,-0.20939155,0.81879217,17.306118,-6.5995781)"
       id="text4592"
       style="font-style:normal;font-variant:normal;font-weight:normal;font-stretch:normal;font-size:9.03934383px;line-height:125%;font-family:'.Helvetica LT MM';-inkscape-font-specification:'.Helvetica LT MM, Normal';font-variant-ligatures:normal;font-variant-caps:normal;font-variant-numeric:normal;font-feature-settings:normal;text-align:start;letter-spacing:0px;word-spacing:0px;writing-mode:lr-tb;text-anchor:start;display:inline;fill:#000000;fill-opacity:1;stroke:none;stroke-width:1px;stroke-linecap:butt;stroke-linejoin:miter;stroke-opacity:1"
       xml:space="preserve"><textPath
         startOffset="0%"
         style="font-style:normal;font-variant:normal;font-weight:normal;font-stretch:normal;font-size:11.44175816px;line-height:114.99999762%;font-family:'.Helvetica LT MM';-inkscape-font-specification:'.Helvetica LT MM, Normal';font-variant-ligatures:normal;font-variant-caps:normal;font-variant-numeric:normal;font-feature-settings:normal;text-align:start;writing-mode:lr-tb;text-anchor:start"
         id="textPath4650"
         xlink:href="#path4648">  molotov ★ breaking services since 2015</textPath></text>
<ellipse
       transform="matrix(-0.84568581,-0.53368109,0.54356998,-0.83936385,0,0)"
       ry="33.46302"
       rx="36.313698"
       cy="-18.82696"
       cx="-66.241203"
       id="path4648"
       style="display:inline;opacity:1;fill:none;fill-opacity:1;stroke:#000000;stroke-width:0;stroke-miterlimit:1;stroke-dasharray:none;stroke-dashoffset:0;stroke-opacity:1" /><ellipse
       ry="38.336243"
       rx="38.530933"
       cy="44.135784"
       cx="43.390114"
       id="path4653"
       style="display:inline;opacity:1;fill:none;fill-opacity:1;stroke:#000000;stroke-width:1.51084423;stroke-miterlimit:1;stroke-dasharray:4.53253268, 1.51084423;stroke-dashoffset:0;stroke-opacity:1" /><g
       id="g5338"
       i:extraneous="self"
       transform="matrix(0.49122042,0,0,0.58482113,17.812239,11.834909)"><path
         inkscape:connector-curvature="0"
         id="path5330"
         d="m 0.463,35.763 2.755,2.3 c 0.484,0.407 1.214,0.19 1.484,-0.135 l 7.707,-9.224 c 0.945,-1.131 -0.213,-2.38 0.193,-2.864 0.536,-0.643 2.16,-2.584 2.16,-2.584 l -1.779,-1.488 c 0,0 -1.622,1.944 -2.162,2.587 -0.404,0.484 -1.833,-0.435 -2.781,0.698 l -7.708,9.225 c -0.267,0.325 -0.35,1.083 0.131,1.485 z" /><path
         inkscape:connector-curvature="0"
         id="path5332"
         d="m 66.563,65.811 1.793,-3.807 c 0.703,-1.49 2.183,-2.371 3.73,-2.367 0.58,-0.004 1.184,0.12 1.75,0.392 l 5.119,2.408 c 0.522,-2.332 -0.063,-4.413 -0.063,-4.413 0,0 -0.545,3.293 -1.96,2.606 -1.415,-0.683 0.355,-1.329 0.536,-5.436 0.179,-4.106 -1.979,-5.004 -1.979,-5.004 0.329,0.401 0.365,1.699 -0.38,2.015 -0.974,0.407 -1.807,0.159 -2.467,-1.084 -1.9,-3.564 1.004,-6.257 1.004,-6.257 -3.235,-0.067 -5.719,2.928 -5.186,5.332 0.686,3.087 0.56,5.225 -0.52,5.236 -1.086,0.021 -0.574,-1.847 -0.574,-1.847 0,0 -4.809,2.102 -2.79,8.955 0.386,1.303 1.09,2.402 1.987,3.271 z M 88.957,72.96 H 61.792 c -1.84,0 -3.333,1.494 -3.333,3.335 v 6.37 c 0,1.841 1.493,3.332 3.333,3.332 h 27.165 c 1.842,0 3.335,-1.491 3.335,-3.332 v -6.37 c 0,-1.841 -1.493,-3.335 -3.335,-3.335 z m 0.602,1.525 0.332,0.333 -2.709,2.709 -0.332,-0.329 z m -3.251,0.001 0.332,0.331 -2.71,2.71 -0.334,-0.332 z m -3.252,-0.001 0.329,0.333 -2.707,2.711 -0.333,-0.333 z m -3.251,0.001 0.332,0.329 -2.71,2.712 -0.333,-0.331 z m -3.253,-0.001 0.333,0.333 -2.709,2.709 -0.334,-0.332 z m -3.254,0.001 0.334,0.332 -2.709,2.709 -0.333,-0.332 z m -3.249,-0.001 0.331,0.332 -2.709,2.712 -0.334,-0.333 z m -3.252,0 0.332,0.332 -2.711,2.712 -0.333,-0.333 z m -3.253,0 0.332,0.332 -2.71,2.71 -0.334,-0.332 z m 0,10.207 -2.712,-2.711 0.334,-0.333 2.71,2.71 z m 3.253,-0.002 -2.712,-2.71 0.333,-0.334 2.711,2.712 z m 3.252,-0.001 -2.712,-2.708 0.334,-0.333 2.709,2.712 z m 3.249,0.001 -2.708,-2.709 0.333,-0.333 2.709,2.712 z m 3.254,0.002 -2.71,-2.711 0.334,-0.332 2.709,2.709 z m 3.253,0 -2.711,-2.711 0.333,-0.332 2.71,2.711 z m 3.251,-0.002 -2.711,-2.707 0.333,-0.334 2.707,2.711 z m 3.252,0 -2.712,-2.709 0.334,-0.332 2.71,2.711 z m 3.251,0.002 -2.709,-2.709 0.332,-0.334 2.709,2.709 z m 1.582,-4.046 H 59.459 v -0.468 h 31.682 z m 0,-1.791 H 59.459 v -0.469 h 31.682 z m 6.942,-6.547 -7.362,-3.466 c 0.307,-0.946 0.353,-2.022 0.043,-2.898 -0.11,-0.311 -0.919,-1.192 -0.913,-1.427 0,0.008 -0.031,1.213 -0.678,1.004 -0.645,-0.198 -0.336,-1.503 0.628,-3.233 0.755,-1.345 -0.201,-3.59 -2.151,-4.125 0,0 1.259,2.134 -0.521,3.932 -0.619,0.625 -1.164,0.628 -1.674,0.208 -0.391,-0.324 -0.137,-1.096 0.135,-1.279 0,0 -1.456,0.152 -2.086,2.648 -0.154,0.616 -0.213,1.173 -0.229,1.668 L 73.504,60.741 C 71.838,59.96 69.852,60.674 69.068,62.34 l -2.714,5.764 c -0.682,1.45 -0.225,3.141 1.003,4.071 h 21.597 c 2.277,0 4.119,1.843 4.119,4.119 v 6.372 c 0,0.54 -0.11,1.052 -0.3,1.525 1.613,0.612 3.448,-0.096 4.195,-1.682 l 2.712,-5.764 c 0.786,-1.666 0.071,-3.653 -1.597,-4.437 z" /><path
         inkscape:connector-curvature="0"
         id="path5334"
         d="m 18.226,21.188 c -0.692,-4.351 -4.562,-4.631 -4.562,-4.631 0,0 2.257,1.824 1.13,2.601 -1.125,0.779 -1.672,-1.714 -4.704,-3.614 -3.03,-1.896 -4.636,-0.648 -4.636,-0.648 0.445,-0.077 1.442,0.453 1.361,1.152 -0.107,0.913 -0.654,1.435 -1.877,1.401 -3.514,-0.092 -4.305,-3.445 -4.305,-3.445 -1.442,2.418 -0.24,5.583 1.809,6.212 2.632,0.806 4.196,1.818 3.743,2.643 -0.452,0.83 -1.646,-0.358 -1.646,-0.358 0,0 -0.199,2.016 1.453,3.779 l 1.439,-1.725 c 0.577,-0.727 1.423,-0.904 1.994,-0.888 0.406,0 0.741,0.054 0.905,0.055 0.619,-0.741 2.049,-2.455 2.049,-2.455 l 0.502,-0.604 2.986,2.492 -0.503,0.604 c -0.003,0.003 -1.406,1.677 -2.061,2.461 0.058,0.222 0.254,0.782 0.27,1.433 0.003,0.216 -0.032,0.454 -0.103,0.694 3.03,-0.909 5.27,-3.925 4.756,-7.159 z" /><path
         inkscape:connector-curvature="0"
         id="path5336"
         d="m 29,33.585 c 3.361,0.503 6.48,-1.813 6.979,-5.166 0.496,-3.356 -1.813,-6.477 -5.176,-6.978 -3.35,-0.499 -6.477,1.82 -6.975,5.168 -0.495,3.36 1.819,6.48 5.172,6.976 z m 31.142,-7.31 -13.272,5.343 c 0,0 -14.718,3.342 -14.956,3.339 -0.974,-0.009 -1.876,0.267 -2.658,0.725 l -0.005,-0.008 -10.271,4.954 -8.131,-8.839 -2.862,3.427 8.357,10.313 c 0.505,0.586 1.229,0.9 1.968,0.9 0.383,0 0.769,-0.084 1.13,-0.258 l 7.206,-3.478 -0.133,13.942 c -0.004,0.396 0.046,0.779 0.127,1.151 l 0.344,9.552 -13.411,9.864 2.875,4.264 15.66,-9.748 c 0.928,-0.627 1.473,-1.695 1.432,-2.812 l -0.249,-6.866 7.6,8.284 -0.893,14.554 5.526,0.521 1.971,-15.9 C 47.583,68.586 47.275,67.675 46.658,67 L 36.907,56.376 37.062,40.2 c 0.003,-0.304 -0.034,-0.596 -0.081,-0.886 L 48.308,36.62 48.764,36.467 61.83,30.07 Z" /></g><ellipse
       style="display:inline;opacity:1;fill:none;fill-opacity:1;stroke:#000000;stroke-width:1.6269815;stroke-miterlimit:1;stroke-dasharray:none;stroke-dashoffset:0;stroke-opacity:1"
       id="ellipse5992"
       cx="43.390114"
       cy="44.063427"
       rx="41.521511"
       ry="41.244961" /></g></svg>